#!OML:ASF X:\für Bonn\!DataBase\2005_08_11_Bastian_Final\c3d\Bastian.ASF
:FULLY-SPECIFIED
:DEGREES
113
root -2.93697 17.2873 2.21985 159.615 -5.99496 -171.207
lowerback 14.6956 -3.13232 1.1867
upperback 7.45535 -5.05813 0.768914
thorax -0.358958 -2.97634 0.877686
lowerneck -2.45741 -5.58223 -5.13442
upperneck -4.53751 -6.72175 11.7373
head -0.381097 -3.20275 4.74008
rclavicle 6.08778e-015 -3.18055e-014
rhumerus -40.5206 26.5162 -94.3088
rradius 56.0599
rwrist -27.3254
rhand -39.1006 13.1696
rfingers 7.12502
rthumb -12.1006 -16.4605
lclavicle 6.08778e-015 -3.18055e-014
lhumerus -8.05266 -46.7648 82.4775
lradius 47.6981
lwrist -4.68812
lhand -44.8678 -1.37304
lfingers 7.12502
lthumb -17.6564 27.8453
rfemur -19.2043 -4.09699 23.4293
rtibia 74.8507
rfoot -2.63123 -0.492674
rtoes -11.6759
lfemur 11.3495 1.64589 -12.2831
ltibia 30.6481
lfoot -16.9615 -6.65346
ltoes -11.9214
114
root -2.9182 17.2759 2.192 160.132 -5.72907 -171.451
lowerback 13.9036 -3.05103 1.0411
upperback 7.18537 -4.89261 0.675446
thorax -0.225016 -2.85718 0.792305
lowerneck -2.24562 -5.55833 -4.92592
upperneck -4.34602 -6.72769 11.5892
head -0.370307 -3.21628 4.64826
rclavicle -3.10104e-014 -1.11319e-014
rhumerus -40.0656 25.9762 -94.2205
rradius 56.8078
rwrist -26.9729
rhand -39.0697 13.7146
rfingers 7.12502
rthumb -12.0708 -15.9173
lclavicle -3.10104e-014 -1.11319e-014
lhumerus -10.1801 -46.9949 83.8922
lradius 45.9248
lwrist -4.27408
lhand -44.0002 -0.638461
lfingers 7.12502
lthumb -16.8214 28.6529
rfemur -18.1042 -3.98777 23.3618
rtibia 72.7889
rfoot -3.13035 -0.721418
rtoes -11.451
lfemur 10.8013 1.8449 -12.4345
ltibia 31.059
lfoot -17.3178 -6.54927
ltoes -12.1729
115
root -2.89788 17.2668 2.16254 160.629 -5.47025 -171.711
lowerback 13.1202 -2.96534 0.866951
upperback 6.9328 -4.72958 0.589154
thorax -0.0711157 -2.74344 0.733459
lowerneck -2.10264 -5.54092 -4.6789
upperneck -4.14346 -6.74243 11.383
head -0.346631 -3.23197 4.5256
rclavicle -2.75503e-014 3.18055e-015
rhumerus -39.6116 25.4695 -94.131
rradius 57.6247
rwrist -26.7062
rhand -39.0081 14.2431
rfingers 7.12502
rthumb -12.0114 -15.3923
lclavicle -2.75503e-014 3.18055e-015
lhumerus -12.2935 -47.0817 85.3604
lradius 44.1379
lwrist -3.94588
lhand -43.1093 0.0956491
lfingers 7.12502
lthumb -15.9636 29.4578
rfemur -17.0238 -3.91504 23.2801
rtibia 70.7748
rfoot -3.72899 -0.935806
rtoes -11.2259
lfemur 10.291 2.05767 -12.5927
ltibia 31.4354
lfoot -17.6359 -6.46045
ltoes -12.3213
116
root -2.8776 17.2559 2.13203 161.104 -5.23484 -171.996
lowerback 12.3541 -2.89138 0.706561
upperback 6.69192 -4.58311 0.469047
thorax 0.0849879 -2.63932 0.637985
lowerneck -1.96002 -5.52335 -4.46562
upperneck -3.96223 -6.74796 11.2554
head -0.326217 -3.24106 4.43903
rclavicle -7.22149e-014 1.90833e-014
rhumerus -39.126 24.9651 -94.0885
rradius 58.4006
rwrist -26.4362
rhand -38.9663 14.7999
rfingers 7.12502
rthumb -11.9712 -14.8378
lclavicle -7.22149e-014 1.90833e-014
lhumerus -14.3943 -47.1246 86.7977
lradius 42.357
lwrist -3.54002
lhand -42.2697 0.657322
lfingers 7.12502
lthumb -15.155 30.0824
rfemur -15.9457 -3.87706 23.164
rtibia 68.7796
rfoot -4.30311 -1.12911
rtoes -11.3259
lfemur 9.80826 2.27749 -12.7842
ltibia 31.8087
lfoot -17.9772 -6.37611
ltoes -12.6018
117
root -2.8544 17.2414 2.1004 161.563 -4.99392 -172.286
lowerback 11.5911 -2.81176 0.511089
upperback 6.46741 -4.43659 0.368556
thorax 0.26353 -2.53946 0.584552
lowerneck -1.91373 -5.51604 -4.23965
upperneck -3.72377 -6.77434 11.053
head -0.271937 -3.25757 4.31876
rclavicle 1.18587e-014 -1.43125e-014
rhumerus -38.6157 24.4827 -94.0252
rradius 59.1686
rwrist -26.1801
rhand -38.8907 15.3237
rfingers 7.12502
rthumb -11.8982 -14.3182
lclavicle 1.18587e-014 -1.43125e-014
lhumerus -16.4926 -47.142 88.2694
lradius 40.5767
lwrist -3.0559
lhand -41.5871 1.18847
lfingers 7.12502
lthumb -14.4974 30.662
rfemur -14.8749 -3.81725 23.0628
rtibia 66.7917
rfoot -4.88907 -1.33441
rtoes -11.4774
lfemur 9.3316 2.521 -12.9544
ltibia 32.1941
lfoot -18.2887 -6.35204
ltoes -12.6676
118
root -2.82724 17.2253 2.0688 162.001 -4.74877 -172.567
lowerback 10.8795 -2.73153 0.313389
upperback 6.23421 -4.28902 0.266402
thorax 0.407654 -2.44057 0.537196
lowerneck -1.82855 -5.50417 -4.0475
upperneck -3.54421 -6.78532 10.9034
head -0.24164 -3.26686 4.22735
rclavicle -5.59827e-014 1.19271e-014
rhumerus -38.1219 23.978 -93.9993
rradius 59.9402
rwrist -25.8915
rhand -38.8238 15.8124
rfingers 7.12502
rthumb -11.8338 -13.8332
lclavicle -5.59827e-014 1.19271e-014
lhumerus -18.6571 -47.2078 89.7909
lradius 38.7924
lwrist -2.43023
lhand -41.0463 1.67831
lfingers 7.12502
lthumb -13.9762 31.1885
rfemur -13.8148 -3.71496 23.0172
rtibia 64.8204
rfoot -5.5032 -1.58757
rtoes -11.8768
lfemur 8.8602 2.87846 -13.0422
ltibia 32.6063
lfoot -18.6001 -6.45882
ltoes -12.5677
